<?xml version="1.0" encoding="utf-8"?>
<!-- Generator: Adobe Illustrator 16.0.0, SVG Export Plug-In . SVG Version: 6.00 Build 0)  -->
<!DOCTYPE svg PUBLIC "-//W3C//DTD SVG 1.1//EN" "http://www.w3.org/Graphics/SVG/1.1/DTD/svg11.dtd">
<svg version="1.1" id="Layer_1" xmlns:sketch="http://www.bohemiancoding.com/sketch/ns"
	 xmlns="http://www.w3.org/2000/svg" xmlns:xlink="http://www.w3.org/1999/xlink" x="0px" y="0px" width="200px" height="200px"
	 viewBox="0 0 200 200" enable-background="new 0 0 200 200" xml:space="preserve">
<title>Facebook</title>
<description>Created with Sketch (http://www.bohemiancoding.com/sketch)</description>
<path fill="#7D7868" d="M100,0C44.771,0,0,44.771,0,100c0,55.229,44.771,100,100,100c55.229,0,100-44.771,100-100
	C200,44.771,155.229,0,100,0z M133.973,91.091c-0.023,1.765-0.246,7.272-0.5,12.191l-0.375,8.933l-13.015,0.121l-13.012,0.121v33.68
	v21.7H80.176c0.007-5.933,0.045-13.665,0.117-22.063l0.25-33.314h-9.261h-9.383v-12.314V87.952h9.261h9.26l0.123-13.759
	c0.141-12.562,0.23-13.927,1.001-16.296c3.143-9.67,9.609-16.199,19.393-19.555c5.004-1.716,9.189-2.197,17.646-2.173
	c6.938,0.02,14.937,0.528,15.392,0.965c0.096,0.094,0.033,5.108-0.127,11.226l-0.25,11.225h-8.758
	c-12.246,0.012-14.781,0.621-16.643,3.984c-0.877,1.584-0.881,2.082-1.002,13.036l-0.122,11.346h13.513H134.1L133.973,91.091z"/>
</svg>
